<svg width="426" height="112" viewBox="0 0 426 112" fill="none" xmlns="http://www.w3.org/2000/svg">
<path d="M415.127 72.2222C421.167 72.2222 426 77.0549 426 83.0958C426 89.0024 421.167 93.8351 415.127 93.8351C409.22 93.8351 404.387 89.0024 404.387 83.0958C404.387 77.0549 409.22 72.2222 415.127 72.2222Z" fill="#BB8300"/>
<path d="M155.049 3.22168C161.09 3.22168 165.923 8.05439 165.923 14.0953C165.923 20.0019 161.09 24.8346 155.049 24.8346C149.143 24.8346 144.31 20.0019 144.31 14.0953C144.31 8.05439 149.143 3.22168 155.049 3.22168Z" fill="#BB8300"/>
<path d="M350.92 92.7612V93.8351H306.218V92.7612C306.486 92.7612 309.305 92.7612 309.708 92.7612C319.239 92.3585 319.91 85.9148 319.91 77.3234V18.7939C319.91 10.2024 319.239 3.75878 309.708 3.35605C309.305 3.35605 306.486 3.35605 306.218 3.35605V2.28212C324.474 2.81908 335.214 2.01364 338.301 0V43.7629C350.652 29.5332 383.541 25.9087 383.541 52.6228V77.3234C383.541 85.9148 384.346 92.3585 393.878 92.7612C394.146 92.7612 396.965 92.7612 397.368 92.7612V93.8351H352.799V92.7612C353.068 92.7612 354.679 92.7612 354.947 92.7612C364.479 92.3585 365.15 85.9148 365.15 77.3234V50.475C365.15 33.9632 345.416 35.7084 338.301 45.1053V77.3234C338.301 85.9148 338.973 92.3585 348.504 92.7612C348.906 92.7612 350.517 92.7612 350.92 92.7612Z" fill="#F3F3F3"/>
<path d="M294.837 52.8912C294.569 49.4009 290.273 34.0973 274.164 34.0973C260.203 34.0973 253.356 50.6091 280.742 55.576C318.33 62.2881 306.785 94.9089 274.164 94.9089C265.035 94.9089 255.236 91.1502 248.524 85.2435L248.389 87.5256H247.316L247.45 84.1696L247.584 83.2299L248.389 69.8057H249.463L249.329 73.296C250.403 81.8875 257.921 93.835 274.164 93.835C292.421 93.835 298.73 78.1287 275.238 73.833C237.919 67.1209 246.51 32.8892 274.164 32.8892C281.279 32.8892 288.259 34.9028 294.032 38.5273L293.898 36.3795H294.971L296.045 54.2336H294.971L294.837 52.8912Z" fill="#F3F3F3"/>
<path d="M209.778 32.7549V32.8891C224.679 32.8891 234.345 40.2724 238.909 50.0721H197.428C196.488 54.2336 196.086 58.9321 196.086 63.6305C196.086 107.125 231.525 92.2241 236.761 79.4711L237.701 80.1423C223.068 105.648 177.292 97.3253 177.694 63.6305C177.829 48.1927 188.568 32.7549 209.778 32.7549ZM197.696 48.9982H221.323C219.041 40.4067 215.148 34.0973 209.778 34.0973C203.872 34.0973 199.844 40.4067 197.696 48.9982Z" fill="#F3F3F3"/>
<path d="M165.655 33.9631V90.7475C165.655 110.078 148.472 115.18 128.872 109.944C146.19 112.36 147.263 102.695 147.263 91.5529V52.757C147.263 44.1655 146.592 37.8562 137.061 37.4534C136.658 37.4534 133.839 37.4534 133.571 37.4534V36.2452C151.828 36.9165 162.567 36.111 165.655 33.9631Z" fill="#F3F3F3"/>
<path d="M137.521 93.835H105.303V85.6462C100.068 91.2844 92.8188 94.9089 83.8246 94.9089C53.6201 94.9089 52.6804 53.5624 83.8246 53.5624C93.6242 53.5624 100.471 57.4554 105.303 62.9594V54.6364C105.303 49.5352 105.169 35.3055 94.027 34.0973C83.1534 33.0234 74.4276 41.8834 73.6222 52.8912L73.4879 54.2336H72.414L73.4879 36.3795H74.6961L74.5619 38.5273C81.1397 34.3658 89.7312 32.8892 98.0542 32.8892C111.21 32.8892 123.426 39.7355 123.694 55.1733V77.3233C123.694 85.9147 124.5 92.3583 134.031 92.7611C134.3 92.7611 137.119 92.7611 137.521 92.7611V93.835ZM105.303 84.0353V64.8387C102.887 61.3485 99.6651 58.7979 95.1009 58.6636C74.0249 57.7239 74.8304 91.1502 95.1009 90.2105C99.6651 89.942 102.887 87.3914 105.303 84.0353Z" fill="#F3F3F3"/>
<path d="M45.9107 92.7611V93.835H0V92.7611C0.268484 92.7611 3.08756 92.7611 3.49029 92.7611C13.0215 92.3584 13.6927 85.9148 13.6927 77.3233V52.757C13.6927 44.1655 13.0215 37.8562 3.49029 37.4534C3.08756 37.4534 0.268484 37.4534 0 37.4534V36.2453C18.2569 36.9165 28.9963 36.111 32.0838 33.9631V43.7628C37.8562 37.1849 49.1326 32.755 59.3349 32.8892C61.0801 32.8892 62.8252 33.0234 64.4361 33.4262L58.6637 42.2861C52.4886 35.0371 37.8562 37.7219 32.0838 45.1052V77.3233C32.0838 85.9148 32.755 92.3584 42.2862 92.7611C42.6889 92.7611 45.508 92.7611 45.9107 92.7611Z" fill="#F3F3F3"/>
</svg>
